<svg data-logo="logo" xmlns="http://www.w3.org/2000/svg" viewBox="0 0 218 42">
        <g style="opacity: 1;" id="logogram" transform="translate(0, 1) rotate(0)"><path d="M28.7089 33.1053L1.9434 14.6424C-0.768963 12.7715 0.15306 8.87601 3.53531 7.95996L31.9823 0.239132C32.5849 0.0216955 33.2306 -0.0488885 33.866 0.0332432C34.5013 0.115375 35.1079 0.34785 35.6355 0.711378C36.1629 1.07491 36.5961 1.559 36.899 2.12348C37.2018 2.68795 37.3658 3.31654 37.3771 3.95706L35.6912 30.1393C35.4913 33.247 31.4213 34.9762 28.7089 33.1053Z" fill="#000000"></path><path d="M20.2197 37.6632L4.45132 6.82618C4.09087 6.12072 3.93226 5.32941 3.99297 4.53953C4.05367 3.74965 4.33135 2.99187 4.79536 2.34978C5.25939 1.70769 5.89172 1.20622 6.62264 0.900668C7.35356 0.595117 8.15466 0.497365 8.93761 0.618198L38.1604 5.12834C38.8331 5.23219 39.4717 5.49425 40.0236 5.89298C40.5753 6.29172 41.0245 6.81572 41.3344 7.42191C41.6441 8.0281 41.8057 8.69917 41.8055 9.37994C41.8054 10.0607 41.6437 10.7317 41.3338 11.3378L27.8719 37.6647C27.5104 38.3681 26.962 38.9583 26.2869 39.3703C25.6118 39.7823 24.8363 40.0002 24.0454 40C23.2545 39.9999 22.479 39.7817 21.804 39.3695C21.1291 38.9571 20.5809 38.3668 20.2197 37.6632Z" fill="#000000"></path><path d="M37.3055 4.9955L22.7382 2.74713L4.85269 7.60342L11.9917 21.5695L28.7089 33.1053C29.0777 33.357 29.4834 33.5497 29.9114 33.6767L36.2612 21.2592L37.3055 4.9955Z" fill="#000000"></path></g>
        <g style="opacity: 1;" id="logotype" transform="translate(48, 9)"><path fill="#000000" d="M16.12 24L11.92 24Q10.10 24 9.43 23.05Q8.77 22.11 8.77 19.45L8.77 19.45L8.77 0.90L13.32 0.90L13.32 19.45Q13.32 21.02 13.75 21.99Q14.19 22.95 15.77 22.95L15.77 22.95L16.12 22.95L16.12 24ZM23.89 24L19.34 24L19.34 12.10Q19.34 10.52 18.91 9.56Q18.50 8.60 16.92 8.60L16.92 8.60L16.57 8.60L16.57 7.55L20.04 7.55Q21.23 7.55 21.91 7.85Q22.59 8.14 22.98 8.84L22.98 8.84Q23.61 8.25 24.78 7.72Q25.95 7.20 28.09 7.20L28.09 7.20Q31.38 7.20 33.06 8.72Q34.73 10.24 34.73 13.64L34.73 13.64L34.73 24L30.19 24L30.19 13.60Q30.19 11.05 29.24 10.00Q28.30 8.95 26.86 8.95L26.86 8.95Q25.74 8.95 24.92 9.26Q24.09 9.58 23.64 10.03L23.64 10.03L23.75 10.52Q23.82 10.77 23.85 11.12Q23.89 11.47 23.89 11.89L23.89 11.89L23.89 24ZM44.47 24.35L44.47 24.35Q42.09 24.35 40.74 23.05Q39.39 21.76 39.39 19.24L39.39 19.24L39.39 9.12L37.29 9.12L37.29 7.55L39.39 7.55L39.39 4.40L41.14 2.30L43.94 2.30L43.94 7.55L47.79 7.55L47.79 9.12L43.94 9.12L43.94 19.45Q43.94 21.41 44.41 22.09Q44.89 22.77 45.76 22.77L45.76 22.77Q46.32 22.77 46.83 22.63Q47.34 22.50 47.72 22.32L47.72 22.32Q48.11 22.11 48.53 21.83L48.53 21.83L49.02 22.81Q48.56 23.20 47.93 23.58L47.93 23.58Q47.37 23.86 46.51 24.11Q45.66 24.35 44.47 24.35ZM56.19 24L51.64 24L51.64 12.10Q51.64 10.52 51.22 9.56Q50.80 8.60 49.23 8.60L49.23 8.60L48.88 8.60L48.88 7.55L52.34 7.55Q53.53 7.55 54.21 7.85Q54.90 8.14 55.28 8.84L55.28 8.84Q55.91 8.28 57.01 7.74Q58.12 7.20 59.69 7.20L59.69 7.20Q61.20 7.20 62.18 7.90L62.18 7.90Q62.77 8.32 63.07 8.91Q63.37 9.51 63.37 9.47L63.37 9.47L61.58 10.84Q61.34 10.52 60.95 10.17L60.95 10.17Q60.64 9.89 60.20 9.68Q59.76 9.47 59.17 9.47L59.17 9.47Q58.05 9.47 57.28 9.79Q56.51 10.10 56.05 10.56L56.05 10.56L56.12 11.08Q56.16 11.33 56.17 11.63Q56.19 11.92 56.19 12.24L56.19 12.24L56.19 24ZM72.71 24.35L72.71 24.35Q70.12 24.35 68.23 23.21Q66.34 22.07 65.33 20.11Q64.31 18.16 64.31 15.77L64.31 15.77Q64.31 13.36 65.33 11.42Q66.34 9.47 68.23 8.34Q70.12 7.20 72.71 7.20L72.71 7.20Q75.34 7.20 77.21 8.34Q79.08 9.47 80.10 11.42Q81.11 13.36 81.11 15.77L81.11 15.77Q81.11 18.16 80.10 20.11Q79.08 22.07 77.21 23.21Q75.34 24.35 72.71 24.35ZM72.71 22.77L72.71 22.77Q73.94 22.77 74.76 21.86Q75.58 20.95 75.98 19.36Q76.39 17.77 76.39 15.77L76.39 15.77Q76.39 13.74 75.98 12.17Q75.58 10.59 74.76 9.68Q73.94 8.77 72.71 8.77L72.71 8.77Q71.49 8.77 70.66 9.68Q69.84 10.59 69.44 12.17Q69.04 13.74 69.04 15.77L69.04 15.77Q69.04 17.77 69.44 19.36Q69.84 20.95 70.66 21.86Q71.49 22.77 72.71 22.77ZM91.72 24.35L90.46 24.35L84.54 11.57Q83.63 9.65 82.97 8.84Q82.30 8.04 81.43 7.97L81.43 7.97L81.43 7.27Q81.57 7.27 82.02 7.23Q82.48 7.20 82.72 7.20L82.72 7.20Q84.12 7.20 85.33 7.53Q86.54 7.86 87.57 8.81Q88.60 9.75 89.44 11.57L89.44 11.57L92.52 18.29L97.28 7.55L99.17 7.55L91.72 24.35ZM108.17 24.35L108.17 24.35Q104.88 24.35 103.28 22.83Q101.69 21.30 101.69 17.91L101.69 17.91L101.69 12.10Q101.69 10.52 101.25 9.56Q100.82 8.60 99.24 8.60L99.24 8.60L98.89 8.60L98.89 7.55L103.09 7.55Q104.95 7.55 105.59 8.53Q106.24 9.51 106.24 12.10L106.24 12.10L106.24 17.95Q106.24 20.64 107.01 21.71Q107.78 22.77 109.22 22.77L109.22 22.77Q110.02 22.77 110.60 22.43Q111.18 22.07 111.56 21.66L111.56 21.66Q111.81 21.41 112.00 21.13Q112.19 20.85 112.37 20.50L112.37 20.50L112.37 7.55L116.92 7.55L116.92 24L113.94 24L112.72 22.43L112.54 22.43Q112.05 22.95 111.39 23.41L111.39 23.41Q110.83 23.79 110.02 24.07Q109.22 24.35 108.17 24.35ZM128.26 24.35L128.26 24.35Q125.81 24.35 123.99 23.23Q122.17 22.11 121.19 20.17Q120.21 18.23 120.21 15.77L120.21 15.77Q120.21 12.97 121.22 11.07Q122.24 9.16 123.99 8.18Q125.74 7.20 127.91 7.20L127.91 7.20Q130.08 7.20 131.83 8.07Q133.58 8.95 134.59 10.52Q135.61 12.10 135.61 14.20L135.61 14.20Q135.61 14.58 135.59 14.99Q135.57 15.39 135.54 15.71L135.54 15.71L135.47 16.41L124.93 16.41Q124.93 19.87 126.00 21.32Q127.07 22.77 128.78 22.77L128.78 22.77Q130.60 22.77 131.74 21.93Q132.88 21.09 133.79 19.87L133.79 19.87L134.87 20.68Q134.38 21.45 133.56 22.30Q132.74 23.16 131.46 23.75Q130.18 24.35 128.26 24.35ZM124.93 14.83L124.93 14.83L130.88 14.83Q130.88 11.36 130.06 10.07Q129.24 8.77 127.91 8.77L127.91 8.77Q127.14 8.77 126.45 9.33Q125.77 9.89 125.35 11.21Q124.93 12.52 124.93 14.83ZM140.54 24.49L140.54 24.49Q139.53 24.49 138.97 23.89Q138.41 23.30 138.41 22.36L138.41 22.36Q138.41 21.41 138.97 20.81Q139.53 20.22 140.54 20.22L140.54 20.22Q141.56 20.22 142.12 20.81Q142.68 21.41 142.68 22.36L142.68 22.36Q142.68 23.30 142.12 23.89Q141.56 24.49 140.54 24.49ZM151.32 24.35L151.32 24.35Q148.42 24.35 146.89 23.04Q145.37 21.73 145.37 19.63L145.37 19.63Q145.37 17.95 146.16 16.77Q146.95 15.60 149.01 14.99Q151.08 14.37 154.82 14.37L154.82 14.37L155.35 14.37Q155.35 11.22 154.47 10.00Q153.60 8.77 152.02 8.77L152.02 8.77Q150.83 8.77 149.89 9.37Q148.94 9.96 148.52 11.92L148.52 11.92L146.60 11.92Q146.60 11.01 146.72 10.07Q146.84 9.12 147.47 8.42L147.47 8.42Q148.10 7.72 149.55 7.46Q151.01 7.20 152.72 7.20L152.72 7.20Q156.15 7.20 158.02 9.02Q159.90 10.84 159.90 14.55L159.90 14.55L159.90 24L156.92 24L155.70 22.43L155.52 22.43Q155.35 22.70 155.08 22.95Q154.82 23.20 154.54 23.41L154.54 23.41Q154.05 23.79 153.25 24.07Q152.44 24.35 151.32 24.35ZM152.37 22.60L152.37 22.60Q153.18 22.60 153.72 22.25Q154.26 21.90 154.65 21.48L154.65 21.48Q155.10 20.99 155.35 20.32L155.35 20.32L155.35 15.95L154.82 15.95Q152.30 15.95 151.20 16.86Q150.10 17.77 150.10 19.63L150.10 19.63Q150.10 21.09 150.71 21.85Q151.32 22.60 152.37 22.60ZM166.65 5.66L166.65 5.66Q165.32 5.66 164.67 4.85Q164.03 4.05 164.03 3.00L164.03 3.00Q164.03 2.09 164.59 1.56Q165.15 1.04 165.95 1.04L165.95 1.04Q167.28 1.04 167.93 1.84Q168.58 2.65 168.58 3.70L168.58 3.70Q168.58 4.61 168.02 5.13Q167.46 5.66 166.65 5.66ZM168.93 24L164.38 24L164.38 12.10Q164.38 10.52 163.94 9.56Q163.50 8.60 161.93 8.60L161.93 8.60L161.58 8.60L161.58 7.55L165.78 7.55Q167.63 7.55 168.28 8.53Q168.93 9.51 168.93 12.10L168.93 12.10L168.93 24Z"></path></g>
        
      </svg>